<?xml version="1.0" encoding="utf-8"?>
<!-- Generator: Adobe Illustrator 21.0.0, SVG Export Plug-In . SVG Version: 6.00 Build 0)  -->
<svg version="1.1" id="Layer_1" xmlns="http://www.w3.org/2000/svg" xmlns:xlink="http://www.w3.org/1999/xlink" x="0px" y="0px"
	 viewBox="0 0 200 200" enable-background="new 0 0 200 200" xml:space="preserve">
<path fill="#22A7F0" d="M190,195H10c-2.8,0-5-2.2-5-5V10c0-2.8,2.2-5,5-5h180c2.8,0,5,2.2,5,5v180C195,192.8,192.8,195,190,195z"/>
<path id="DJ_Logo_Part" fill="#FFFFFF" d="M129.1,49.6l0,67.2c0,15.2-11.4,28.2-26.5,29.6c-18.2,1.6-33.4-13.7-31.6-32
	c1.3-13.2,13.7-25.2,27-26c5.7-0.4,11.1,0.9,15.7,3.4c0.7,0.4,1.5-0.1,1.5-0.9l0-12.3c0-0.8-0.5-1.6-1.3-1.9
	c-4.5-1.5-9.4-2.4-14.4-2.3C76.7,74.7,57.8,93.1,57,115.8c-0.9,25.8,21,46.8,47,44.4c21.5-2,38.9-22,38.9-43.6l0-76c0-0.6-0.4-1-1-1
	h-2.9C133.6,39.6,129.1,44.1,129.1,49.6z"/>
</svg>
